<?xml version="1.0" encoding="utf-8"?>
<svg width="768px" height="768px" viewBox="0 0 768 768" version="1.1" xmlns:xlink="http://www.w3.org/1999/xlink" xmlns="http://www.w3.org/2000/svg">
  <defs>
    <filter filterUnits="userSpaceOnUse" color-interpolation-filters="sRGB" id="filter_1">
      <feFlood flood-opacity="0" result="BackgroundImageFix" />
      <feColorMatrix in="SourceAlpha" type="matrix" values="0 0 0 0 0 0 0 0 0 0 0 0 0 0 0 0 0 0 128 0" />
      <feOffset dx="0" dy="2" />
      <feGaussianBlur stdDeviation="2" />
      <feColorMatrix type="matrix" values="0 0 0 0 0.39215687 0 0 0 0 0.39215687 0 0 0 0 0.39215687 0 0 0 0.49803922 0" />
      <feBlend mode="normal" in2="BackgroundImageFix" result="effect0_dropShadow" />
      <feBlend mode="normal" in="SourceGraphic" in2="effect0_dropShadow" result="shape" />
    </filter>
  </defs>
  <g id="编组-3">
    <path d="M24 384C24 185.177 185.177 24 384 24C582.823 24 744 185.177 744 384C744 582.823 582.823 744 384 744C185.177 744 24 582.823 24 384Z" id="椭圆" fill="#B4F528" fill-rule="evenodd" stroke="none" filter="url(#filter_1)" />
    <g id="N" transform="translate(186.5 128)">
      <g id="N" fill="#FFFFFF" filter="url(#filter_1)">
        <path d="M34.816 130.048L40.96 139.776C43.52 144.384 44.544 147.456 44.544 152.064L44.544 389.12C44.544 398.848 50.176 404.48 59.904 404.48L116.736 404.48C126.464 404.48 132.096 398.848 132.096 389.12L132.096 249.344C132.096 239.616 138.752 237.056 144.384 245.248L248.32 394.752C252.928 401.92 258.56 404.48 266.752 404.48L337.408 404.48C347.136 404.48 352.768 398.848 352.768 389.12L352.768 130.048C352.768 120.32 347.136 114.688 337.408 114.688L283.648 114.688C273.92 114.688 268.288 120.32 268.288 130.048L268.288 274.944C268.288 284.672 261.632 286.208 256 278.528L146.944 124.416C142.336 117.76 136.704 114.688 128.512 114.688L47.104 114.688C34.816 114.688 29.184 121.344 34.816 130.048Z" />
      </g>
    </g>
  </g>
</svg>