<?xml version="1.0" encoding="utf-8"?>
<svg width="768px" height="768px" viewBox="0 0 768 768" version="1.1" xmlns:xlink="http://www.w3.org/1999/xlink" xmlns="http://www.w3.org/2000/svg">
  <g id="编组-3">
    <path d="M0 0L768 0L768 768L0 768L0 0L0 0Z" id="矩形" fill="#B4F528" fill-rule="evenodd" stroke="none" />
    <g id="编组" transform="translate(176.25 118)">
      <g id="N" transform="translate(20.5 20)">
        <g id="N" fill="#2E2A2A" fill-opacity="0.49803922">
          <path d="M34.816 130.048L40.96 139.776C43.52 144.384 44.544 147.456 44.544 152.064L44.544 389.12C44.544 398.848 50.176 404.48 59.904 404.48L116.736 404.48C126.464 404.48 132.096 398.848 132.096 389.12L132.096 249.344C132.096 239.616 138.752 237.056 144.384 245.248L248.32 394.752C252.928 401.92 258.56 404.48 266.752 404.48L337.408 404.48C347.136 404.48 352.768 398.848 352.768 389.12L352.768 130.048C352.768 120.32 347.136 114.688 337.408 114.688L283.648 114.688C273.92 114.688 268.288 120.32 268.288 130.048L268.288 274.944C268.288 284.672 261.632 286.208 256 278.528L146.944 124.416C142.336 117.76 136.704 114.688 128.512 114.688L47.104 114.688C34.816 114.688 29.184 121.344 34.816 130.048Z" />
        </g>
      </g>
      <g id="N-2">
        <g id="N" fill="#FFFFFF">
          <path d="M34.816 130.048L40.96 139.776C43.52 144.384 44.544 147.456 44.544 152.064L44.544 389.12C44.544 398.848 50.176 404.48 59.904 404.48L116.736 404.48C126.464 404.48 132.096 398.848 132.096 389.12L132.096 249.344C132.096 239.616 138.752 237.056 144.384 245.248L248.32 394.752C252.928 401.92 258.56 404.48 266.752 404.48L337.408 404.48C347.136 404.48 352.768 398.848 352.768 389.12L352.768 130.048C352.768 120.32 347.136 114.688 337.408 114.688L283.648 114.688C273.92 114.688 268.288 120.32 268.288 130.048L268.288 274.944C268.288 284.672 261.632 286.208 256 278.528L146.944 124.416C142.336 117.76 136.704 114.688 128.512 114.688L47.104 114.688C34.816 114.688 29.184 121.344 34.816 130.048Z" />
        </g>
      </g>
    </g>
  </g>
</svg>